REM DIRINDEX 1\2\4,1\2\5,1\2\6,1\2\7,1\3\8,1\3\9
REM DIRNAME cjc037,folder01,folder02,folder03,folder04,folder05,folder06,folder07,folder08
TITLE ""
FILE "Disc2Track22.mp3" MP3
  TRACK 01 AUDIO
    TITLE "0:"
    INDEX 01 00:00:00
  TRACK 02 AUDIO
    TITLE "8:cjc037_1596"
    INDEX 01 00:00:05
  TRACK 03 AUDIO
    TITLE "0:"
    INDEX 01 00:01:64
  TRACK 04 AUDIO
    TITLE "9:cjc037_1597"
    INDEX 01 00:01:69
  TRACK 05 AUDIO
    TITLE "0:"
    INDEX 01 00:04:33
  TRACK 06 AUDIO
    TITLE "8:cjc037_1598"
    INDEX 01 00:06:65
  TRACK 07 AUDIO
    TITLE "0:"
    INDEX 01 00:08:48
  TRACK 08 AUDIO
    TITLE "9:cjc037_1599"
    INDEX 01 00:08:52
  TRACK 09 AUDIO
    TITLE "0:"
    INDEX 01 00:11:23
  TRACK 10 AUDIO
    TITLE "8:cjc037_1600"
    INDEX 01 00:13:59
  TRACK 11 AUDIO
    TITLE "0:"
    INDEX 01 00:15:50
  TRACK 12 AUDIO
    TITLE "9:cjc037_1601"
    INDEX 01 00:15:54
  TRACK 13 AUDIO
    TITLE "0:"
    INDEX 01 00:17:74
  TRACK 14 AUDIO
    TITLE "8:cjc037_1602"
    INDEX 01 00:20:34
  TRACK 15 AUDIO
    TITLE "0:"
    INDEX 01 00:22:13
  TRACK 16 AUDIO
    TITLE "9:cjc037_1603"
    INDEX 01 00:22:19
  TRACK 17 AUDIO
    TITLE "0:"
    INDEX 01 00:25:17
  TRACK 18 AUDIO
    TITLE "8:cjc037_1604"
    INDEX 01 00:27:53
  TRACK 19 AUDIO
    TITLE "0:"
    INDEX 01 00:29:38
  TRACK 20 AUDIO
    TITLE "9:cjc037_1605"
    INDEX 01 00:29:42
  TRACK 21 AUDIO
    TITLE "0:"
    INDEX 01 00:31:71
  TRACK 22 AUDIO
    TITLE "8:cjc037_1606"
    INDEX 01 00:34:32
  TRACK 23 AUDIO
    TITLE "0:"
    INDEX 01 00:36:15
  TRACK 24 AUDIO
    TITLE "9:cjc037_1607"
    INDEX 01 00:36:19
  TRACK 25 AUDIO
    TITLE "0:"
    INDEX 01 00:39:11
  TRACK 26 AUDIO
    TITLE "8:cjc037_1608"
    INDEX 01 00:41:45
  TRACK 27 AUDIO
    TITLE "0:"
    INDEX 01 00:43:25
  TRACK 28 AUDIO
    TITLE "9:cjc037_1609"
    INDEX 01 00:43:31
  TRACK 29 AUDIO
    TITLE "0:"
    INDEX 01 00:45:53
  TRACK 30 AUDIO
    TITLE "8:cjc037_1610"
    INDEX 01 00:48:12
  TRACK 31 AUDIO
    TITLE "0:"
    INDEX 01 00:49:57
  TRACK 32 AUDIO
    TITLE "9:cjc037_1611"
    INDEX 01 00:49:65
  TRACK 33 AUDIO
    TITLE "0:"
    INDEX 01 00:51:67
  TRACK 34 AUDIO
    TITLE "8:cjc037_1612"
    INDEX 01 00:54:29
  TRACK 35 AUDIO
    TITLE "0:"
    INDEX 01 00:56:10
  TRACK 36 AUDIO
    TITLE "9:cjc037_1613"
    INDEX 01 00:56:16
  TRACK 37 AUDIO
    TITLE "0:"
    INDEX 01 00:59:08
  TRACK 38 AUDIO
    TITLE "8:cjc037_1614"
    INDEX 01 01:01:42
  TRACK 39 AUDIO
    TITLE "0:"
    INDEX 01 01:03:29
  TRACK 40 AUDIO
    TITLE "9:cjc037_1615"
    INDEX 01 01:03:33
  TRACK 41 AUDIO
    TITLE "0:"
    INDEX 01 01:05:52
  TRACK 42 AUDIO
    TITLE "8:cjc037_1616"
    INDEX 01 01:08:11
  TRACK 43 AUDIO
    TITLE "0:"
    INDEX 01 01:09:65
  TRACK 44 AUDIO
    TITLE "9:cjc037_1617"
    INDEX 01 01:09:71
  TRACK 45 AUDIO
    TITLE "0:"
    INDEX 01 01:12:07
  TRACK 46 AUDIO
    TITLE "8:cjc037_1618"
    INDEX 01 01:14:43
  TRACK 47 AUDIO
    TITLE "0:"
    INDEX 01 01:16:20
  TRACK 48 AUDIO
    TITLE "9:cjc037_1619"
    INDEX 01 01:16:26
  TRACK 49 AUDIO
    TITLE "0:"
    INDEX 01 01:19:27
  TRACK 50 AUDIO
    TITLE "8:cjc037_1620"
    INDEX 01 01:21:61
  TRACK 51 AUDIO
    TITLE "0:"
    INDEX 01 01:23:50
  TRACK 52 AUDIO
    TITLE "9:cjc037_1621"
    INDEX 01 01:23:58
  TRACK 53 AUDIO
    TITLE "0:"
    INDEX 01 01:26:68
  TRACK 54 AUDIO
    TITLE "8:cjc037_1622"
    INDEX 01 01:29:29
  TRACK 55 AUDIO
    TITLE "0:"
    INDEX 01 01:31:18
  TRACK 56 AUDIO
    TITLE "9:cjc037_1623"
    INDEX 01 01:31:22
  TRACK 57 AUDIO
    TITLE "0:"
    INDEX 01 01:33:29
  TRACK 58 AUDIO
    TITLE "8:cjc037_1624"
    INDEX 01 01:35:65
  TRACK 59 AUDIO
    TITLE "0:"
    INDEX 01 01:37:48
  TRACK 60 AUDIO
    TITLE "9:cjc037_1625"
    INDEX 01 01:37:52
  TRACK 61 AUDIO
    TITLE "0:"
    INDEX 01 01:40:27
  TRACK 62 AUDIO
    TITLE "8:cjc037_1626"
    INDEX 01 01:42:63
  TRACK 63 AUDIO
    TITLE "0:"
    INDEX 01 01:44:44
  TRACK 64 AUDIO
    TITLE "9:cjc037_1627"
    INDEX 01 01:44:46
  TRACK 65 AUDIO
    TITLE "0:"
    INDEX 01 01:46:74
  TRACK 66 AUDIO
    TITLE "8:cjc037_1628"
    INDEX 01 01:49:37
  TRACK 67 AUDIO
    TITLE "0:"
    INDEX 01 01:51:19
  TRACK 68 AUDIO
    TITLE "9:cjc037_1629"
    INDEX 01 01:51:27
  TRACK 69 AUDIO
    TITLE "0:"
    INDEX 01 01:54:62
  TRACK 70 AUDIO
    TITLE "8:cjc037_1630"
    INDEX 01 01:57:19
  TRACK 71 AUDIO
    TITLE "0:"
    INDEX 01 01:58:68
  TRACK 72 AUDIO
    TITLE "9:cjc037_1631"
    INDEX 01 01:58:74
  TRACK 73 AUDIO
    TITLE "0:"
    INDEX 01 02:01:35
  TRACK 74 AUDIO
    TITLE "8:cjc037_1632"
    INDEX 01 02:03:69
  TRACK 75 AUDIO
    TITLE "0:"
    INDEX 01 02:05:44
  TRACK 76 AUDIO
    TITLE "9:cjc037_1633"
    INDEX 01 02:05:50
  TRACK 77 AUDIO
    TITLE "0:"
    INDEX 01 02:08:56
  TRACK 78 AUDIO
    TITLE "8:cjc037_1634"
    INDEX 01 02:11:17
  TRACK 79 AUDIO
    TITLE "0:"
    INDEX 01 02:12:70
  TRACK 80 AUDIO
    TITLE "9:cjc037_1635"
    INDEX 01 02:13:01
  TRACK 81 AUDIO
    TITLE "0:"
    INDEX 01 02:14:65
